<?xml version="1.0" encoding="utf-8"?>
<!-- Generator: Adobe Illustrator 24.0.1, SVG Export Plug-In . SVG Version: 6.00 Build 0)  -->
<svg version="1.1" id="Layer_1" xmlns="http://www.w3.org/2000/svg" xmlns:xlink="http://www.w3.org/1999/xlink" x="0px" y="0px"
	 viewBox="0 0 1920 1080" style="enable-background:new 0 0 1920 1080;" xml:space="preserve">
<style type="text/css">
	.st0{fill:none;stroke:#00BFCC;stroke-width:4;stroke-linecap:round;stroke-linejoin:round;stroke-miterlimit:10;}
	.st1{fill:#00BFCC;}
	.st2{fill:#614AC4;}
	.st3{fill:#FFFFFF;stroke:#0055FF;stroke-width:4;stroke-linecap:round;stroke-linejoin:round;stroke-miterlimit:10;}
	.st4{fill:#0055FF;}
	.st5{fill:#FFFFFF;stroke:#000000;stroke-width:4;stroke-linecap:round;stroke-linejoin:round;stroke-miterlimit:10;}
</style>
<circle class="st0" cx="1619.2" cy="357.6" r="185.4"/>
<path class="st0" d="M580.4,194.8H508c18.5,0,33.5-15,33.5-33.5l0,0c0-18.5-15-33.5-33.5-33.5h-93.2c0-18.5-15-33.5-33.5-33.5H186.6
	c-18.5,0-33.5,15-33.5,33.5h-30.7c-18.5,0-33.5,15-33.5,33.5l0,0c0,18.5,15,33.5,33.5,33.5h72.4c-18.5,0-33.5,15-33.5,33.5l0,0
	c0,18.5,15,33.5,33.5,33.5h385.5c18.5,0,33.5-15,33.5-33.5l0,0C613.8,209.8,598.9,194.8,580.4,194.8z"/>
<g>
	<path class="st1" d="M1700.6,531.7c4,5.8,7.9,11.7,11.6,17.7c3.7,6,7.2,12.1,10.4,18.5c0.8,1.6,1.7,3.1,2.6,4.7
		c0.9,1.6,1.9,3.1,2.7,4.7c0.8,1.6,1.6,3.2,2.2,5c0.6,1.7,0.9,3.5,1.2,5.3c0.2,1.8,0.4,3.7,0.4,5.6c0,0.9,0,1.9-0.1,2.9
		c-0.1,1-0.2,1.9-0.3,2.9c-0.2,1.9-0.7,3.9-1.3,5.9c-0.3,1-0.7,2-1.2,2.9l-0.7,1.4c-0.3,0.5-0.5,0.9-0.9,1.4l-1.9,0.1
		c-1.6-1.6-2.7-3.1-3.9-4.6c-1.2-1.5-2.2-2.9-3.2-4.4c-1-1.5-1.9-2.9-2.8-4.4c-0.9-1.5-1.7-2.9-2.4-4.4c-0.7-1.5-1.4-3-1.8-4.6
		c-0.5-1.6-0.9-3.2-1.1-4.9c-0.5-3.4-0.9-6.8-1.7-10.1l-2.5-10l-2.5-10.1c-1.6-6.8-3.3-13.6-4.6-20.6L1700.6,531.7z"/>
</g>
<g>
	<path class="st1" d="M1775.3,553.6c-1.5,5-3,9.8-4,14.6c-1.1,4.8-1.9,9.4-2.4,14c-0.1,1.1-0.1,2.3-0.1,3.5c0.1,1.2,0.2,2.3,0.3,3.5
		c0.2,2.3,0,4.4-0.8,6.6c-0.7,2.2-1.8,4.4-3.1,6.7c-0.7,1.2-1.4,2.3-2.3,3.6c-0.5,0.6-0.9,1.2-1.5,1.9l-0.8,1c-0.3,0.3-0.6,0.6-1,1
		l-1.9,0.1c-0.4-0.3-0.7-0.6-1-0.9l-0.9-0.9c-0.6-0.6-1.1-1.2-1.6-1.9c-1-1.3-1.7-2.6-2.4-3.9c-1.3-2.7-2.1-5.5-2.4-8.3
		c-0.2-1.4-0.1-2.8,0.1-4.2c0.2-1.4,0.7-2.7,1.2-4.1c0.5-1.3,1.2-2.6,1.8-3.9c0.6-1.3,1.3-2.5,1.8-3.8c0.6-1.3,1.2-2.5,1.8-3.7
		c0.7-1.2,1.3-2.4,2-3.6c0.8-1.1,1.5-2.3,2.2-3.4c0.8-1.1,1.6-2.2,2.4-3.2c3.4-4.2,6.9-8,11-11.4L1775.3,553.6z"/>
</g>
<g>
	<path class="st1" d="M1740.6,607.2c-2.2-7.6-3.5-15-4.5-22.5c-1-7.4-1.6-14.8-1.9-22.2c-0.3-7.4-0.1-14.7,0.7-22.1
		c0.7-7.3,1.7-14.7,2-22.1c0.2-3.7,0.5-7.4,0.6-11l0.5-11c0.2-3.7,0.3-7.4,0.4-11c0.1-1.8,0.1-3.7,0.2-5.5l0.1-5.5
		c0.2-7.4,0.1-14.7,0-22.1l-0.4-11.1l-0.9-11l1.9-0.4l3.1,10.8l2.4,11c1.4,7.4,2.6,14.8,3.5,22.2l0.7,5.6c0.2,1.9,0.4,3.7,0.6,5.6
		c0.4,3.7,0.8,7.5,1.1,11.2l0.8,11.2c0.3,3.7,0.5,7.5,0.7,11.2l0.8,11.2c0.3,3.7,0.6,7.5,0.8,11.2c0.2,3.7,0.3,7.5,0.2,11.2
		c-0.1,3.7-0.4,7.5-0.7,11.2c-0.8,7.4-2,14.8-3.7,22.2c-1.7,7.4-3.8,14.7-7,21.9L1740.6,607.2z"/>
</g>
<path class="st1" d="M1656.4,456.8c0,0,47.5,4,58.1,30.3c10.6,26.4,7.9,40.9-5.3,51.5c-13.2,10.6-40.9,1.3-52.8-19.8
	S1656.4,456.8,1656.4,456.8z"/>
<path class="st1" d="M1812.7,478c0,0,21.1,42.8,3.9,65.4c-17.2,22.6-31,27.8-46.8,22c-15.8-5.9-22.2-34.4-10.2-55.4
	C1771.5,488.9,1812.7,478,1812.7,478z"/>
<path class="st2" d="M1662.2,627.7h169.5l-16.2,150.2c-0.4,3.5-3.4,6.2-6.9,6.2h-123.3c-3.6,0-6.6-2.7-6.9-6.2L1662.2,627.7z"/>
<path class="st2" d="M1847.3,627.7h-200.6c-3.3,0-5.9-2.6-5.9-5.9v-19.9c0-3.3,2.6-5.9,5.9-5.9h200.6c3.3,0,5.9,2.6,5.9,5.9v19.9
	C1853.2,625,1850.6,627.7,1847.3,627.7z"/>
<path class="st1" d="M1740.6,352.2c0,0,38.8,27.6,34.5,55.7c-4.4,28.1-14,39.2-30.8,41.6c-16.7,2.4-35.9-19.7-35.3-43.9
	C1709.5,381.3,1740.6,352.2,1740.6,352.2z"/>
<rect x="431.5" y="219.1" class="st2" width="468.7" height="688.1"/>
<rect x="816.2" y="145.2" class="st1" width="468.7" height="688.1"/>
<g>
	<rect x="1002" y="252.3" class="st3" width="36.6" height="138.3"/>
	<rect x="1038.5" y="252.3" class="st3" width="36.6" height="138.3"/>
	<rect x="1075.1" y="252.3" class="st3" width="36.6" height="138.3"/>
	<rect x="1002" y="187.1" class="st3" width="36.6" height="65.1"/>
	<rect x="1038.5" y="187.1" class="st3" width="36.6" height="65.1"/>
	<rect x="1075.1" y="187.1" class="st3" width="36.6" height="65.1"/>
</g>
<g>
	<rect x="1002" y="555.4" class="st3" width="36.6" height="138.3"/>
	<rect x="1038.5" y="555.4" class="st3" width="36.6" height="138.3"/>
	<rect x="1075.1" y="555.4" class="st3" width="36.6" height="138.3"/>
	<rect x="1002" y="490.3" class="st3" width="36.6" height="65.1"/>
	<rect x="1038.5" y="490.3" class="st3" width="36.6" height="65.1"/>
	<rect x="1075.1" y="490.3" class="st3" width="36.6" height="65.1"/>
</g>
<rect x="1139.3" y="298.8" class="st4" width="468.7" height="688.1"/>
<g>
	<rect x="854.4" y="252.3" class="st3" width="36.6" height="138.3"/>
	<rect x="890.9" y="252.3" class="st3" width="36.6" height="138.3"/>
	<rect x="927.5" y="252.3" class="st3" width="36.6" height="138.3"/>
	<rect x="854.4" y="187.1" class="st3" width="36.6" height="65.1"/>
	<rect x="890.9" y="187.1" class="st3" width="36.6" height="65.1"/>
	<rect x="927.5" y="187.1" class="st3" width="36.6" height="65.1"/>
</g>
<g>
	<rect x="854.4" y="555.4" class="st3" width="36.6" height="138.3"/>
	<rect x="890.9" y="555.4" class="st3" width="36.6" height="138.3"/>
	<rect x="927.5" y="555.4" class="st3" width="36.6" height="138.3"/>
	<rect x="854.4" y="490.3" class="st3" width="36.6" height="65.1"/>
	<rect x="890.9" y="490.3" class="st3" width="36.6" height="65.1"/>
	<rect x="927.5" y="490.3" class="st3" width="36.6" height="65.1"/>
</g>
<g>
	<circle class="st5" cx="1241.3" cy="402.5" r="51.9"/>
	<rect x="1189.4" y="402.5" class="st5" width="103.7" height="145.6"/>
	<line class="st5" x1="1204.6" y1="365.9" x2="1241.3" y2="402.5"/>
	<line class="st5" x1="1278" y1="366" x2="1241.3" y2="402.7"/>
</g>
<g>
	<circle class="st5" cx="1433.8" cy="402.5" r="51.9"/>
	<rect x="1381.9" y="402.5" class="st5" width="103.7" height="145.6"/>
	<line class="st5" x1="1397.1" y1="365.9" x2="1433.8" y2="402.5"/>
	<line class="st5" x1="1470.4" y1="366" x2="1433.8" y2="402.7"/>
</g>
<g>
	<circle class="st5" cx="1241.3" cy="681.1" r="51.9"/>
	<rect x="1189.4" y="681.1" class="st5" width="103.7" height="145.6"/>
	<line class="st5" x1="1204.6" y1="644.5" x2="1241.3" y2="681.1"/>
	<line class="st5" x1="1278" y1="644.6" x2="1241.3" y2="681.3"/>
</g>
<g>
	<circle class="st5" cx="1433.8" cy="681.1" r="51.9"/>
	<rect x="1381.9" y="681.1" class="st5" width="103.7" height="145.6"/>
	<line class="st5" x1="1397.1" y1="644.5" x2="1433.8" y2="681.1"/>
	<line class="st5" x1="1470.4" y1="644.6" x2="1433.8" y2="681.3"/>
</g>
<g>
	<rect x="477.4" y="282.9" class="st3" width="140.5" height="144.5"/>
	<rect x="617.9" y="316.8" class="st3" width="88.9" height="110.5"/>
	<rect x="617.9" y="282.9" class="st3" width="88.9" height="33.9"/>
	<rect x="618.3" y="282.9" class="st3" width="29.3" height="33.9"/>
</g>
<g>
	<rect x="477.4" y="548.1" class="st3" width="140.5" height="144.5"/>
	<rect x="617.9" y="582.1" class="st3" width="88.9" height="110.5"/>
	<rect x="617.9" y="548.1" class="st3" width="88.9" height="33.9"/>
	<rect x="618.3" y="548.1" class="st3" width="29.3" height="33.9"/>
</g>
<rect x="172.9" y="471.2" class="st1" width="131.7" height="341.6"/>
<circle class="st1" cx="238.7" cy="471.2" r="65.9"/>
<g>
	<path class="st1" d="M180.2,770.5c-4.4,0.1-8.9-0.1-13.5-0.9c-4.6-0.9-9.3-2.4-13.7-4.5c-4.4-2.2-8.5-5-12-8.2
		c-3.5-3.2-6.4-6.8-8.9-10.5c-2.5-3.7-4.4-7.4-6.1-11.2c-0.9-1.9-1.6-3.7-2.3-5.6c-0.6-1.9-1.3-3.7-1.9-5.6
		c-2.3-7.4-3.7-14.7-4.8-22c-2-14.4-2.5-28.5-2.5-42.3c0.1-13.8,0.7-27.5,1.5-41l1.3-20.1c0.4-6.6,0.8-13.2,1.1-19.5
		c0.1-3.2,0.2-6.3,0.1-9.2c0-2.9-0.2-5.8-0.5-7.6l0-0.3c0-0.1-0.1-0.3-0.1-0.5l-0.2-1.1l-0.5-2.2c-0.2-0.7-0.3-1.5-0.5-2.2l-0.6-2.1
		c-0.7-2.9-1.6-5.6-2.4-8.3c-3.7-10.7-9.3-19.3-17.3-26.3c-4-3.5-8.7-6.6-13.7-9.4l-3.8-2.1l-4-1.9c-0.7-0.3-1.3-0.6-2-0.9l-2.1-0.9
		l-4.2-1.7c3.3-1.5,6.8-3,10.3-4.3c1.7-0.6,3.5-1.3,5.4-1.9l2.8-0.9c0.9-0.3,1.8-0.5,2.8-0.8c-0.3-0.9-0.6-1.9-1-2.8l-1.1-2.7
		c-0.7-1.8-1.5-3.6-2.3-5.5c-1.6-3.6-3.4-7.2-5.3-10.8l5.1,2.1l2.5,1c0.8,0.4,1.7,0.8,2.5,1.2l5,2.4l5,2.7
		c6.6,3.7,13.2,7.9,19.3,13.2c6.1,5.3,11.6,11.5,16,18.4c4.5,6.8,7.9,14.2,10.4,21.5c1.2,3.6,2.4,7.3,3.2,10.9l0.7,2.7
		c0.2,0.9,0.4,1.8,0.6,2.7l0.6,2.7l0.3,1.3c0,0.2,0.1,0.4,0.1,0.7l0.2,0.9c0.8,4.8,0.9,8.6,0.9,12.4c0.1,3.7,0,7.3-0.1,10.8
		c-0.2,7-0.7,13.8-1.1,20.5l-1.3,20c-0.8,13.2-1.4,26.3-1.5,39.2c-0.1,12.9,0.5,25.6,2.2,37.7c0.9,6,2,11.8,3.7,17.2
		c0.4,1.4,0.9,2.6,1.3,3.9c0.5,1.2,0.9,2.5,1.5,3.7c1,2.4,2.2,4.5,3.5,6.4c1.3,1.9,2.6,3.5,4,4.8c1.4,1.3,2.9,2.3,4.5,3.1
		c1.6,0.8,3.3,1.4,5.3,1.7c2,0.3,4.2,0.4,6.5,0.4L180.2,770.5z"/>
</g>
<path class="st1" d="M304.6,768.1v-25c16.7,0,30.4-9.4,40.6-28c9.9-17.9,15.5-43.4,15.5-70c0-65.7-28.2-100-56.2-100v-25
	c25.6,0,47.7,14.8,62.4,41.8c12.1,22.3,18.8,51.9,18.8,83.3c0,31.1-6.6,60.3-18.6,82C352.6,753.6,330.4,768.1,304.6,768.1z"/>
</svg>
