<?xml version="1.0" encoding="utf-8"?>
<!-- Generator: Adobe Illustrator 24.0.1, SVG Export Plug-In . SVG Version: 6.00 Build 0)  -->
<svg version="1.1" xmlns="http://www.w3.org/2000/svg" xmlns:xlink="http://www.w3.org/1999/xlink" x="0px" y="0px"
	 viewBox="0 0 40 40" style="enable-background:new 0 0 40 40;" xml:space="preserve">
<style type="text/css">
	.st0{display:none;}
	.st1{display:inline;}
	.st2{fill:none;stroke:#FF3A20;stroke-width:2;stroke-linecap:round;stroke-miterlimit:10;}
</style>
<g id="Layer_1" class="st0">
	<g class="st1">
		<g>
			<path d="M39,1v38H1V1H39 M40,0H0v40h40V0L40,0z"/>
		</g>
		<g>
			<g>
				<path d="M20,6.2c7.6,0,13.8,6.2,13.8,13.8S27.6,33.8,20,33.8S6.2,27.6,6.2,20S12.4,6.2,20,6.2 M20,5.2C11.8,5.2,5.2,11.8,5.2,20
					S11.8,34.8,20,34.8S34.8,28.2,34.8,20S28.2,5.2,20,5.2L20,5.2z"/>
			</g>
		</g>
	</g>
</g>
<g id="Layer_2">
	<line class="st2" x1="1.5" y1="1.5" x2="38.5" y2="38.5"/>
	<line class="st2" x1="38.5" y1="1.5" x2="1.5" y2="38.5"/>
</g>
</svg>
