<?xml version="1.0" encoding="utf-8"?>
<!-- Generator: Adobe Illustrator 24.0.1, SVG Export Plug-In . SVG Version: 6.00 Build 0)  -->
<svg version="1.1" id="Layer_1" xmlns="http://www.w3.org/2000/svg" xmlns:xlink="http://www.w3.org/1999/xlink" x="0px" y="0px"
	 viewBox="0 0 336 336" style="enable-background:new 0 0 336 336;" xml:space="preserve">
<style type="text/css">
	.st0{fill-rule:evenodd;clip-rule:evenodd;fill:#0055FF;}
	.st1{fill:#FFFFFF;}
</style>
<title>icon</title>
<desc>Created with Sketch.</desc>
<path id="Rectangle-Copy-5" class="st0" d="M60,0h216c33.1,0,60,26.9,60,60v216c0,33.1-26.9,60-60,60H60c-33.1,0-60-26.9-60-60V60
	C0,26.9,26.9,0,60,0z"/>
<path id="CO_x2F_UP" class="st1" d="M65.3,161.5c12.2,0,21.9-3.6,29.3-10.8s11-16.7,11-28.6l0,0v-2.1c0-0.5-0.2-1-0.7-1.3
	c-0.4-0.4-1-0.6-1.6-0.6l0,0L76.1,117c-0.6,0-1.2,0.2-1.6,0.7s-0.7,1-0.7,1.6l0,0v5.6c0,2.8-0.8,5.1-2.3,6.8
	c-1.5,1.7-3.6,2.6-6.1,2.6c-2.4,0-4.4-0.9-6-2.6c-1.5-1.7-2.3-4-2.3-6.8l0,0V60.9c0-2.9,0.8-5.3,2.3-7c1.5-1.7,3.5-2.6,6-2.6
	c2.6,0,4.6,0.9,6.1,2.6c1.5,1.7,2.3,4.1,2.3,7l0,0v5.2c0,1.5,0.8,2.3,2.3,2.3l0,0l27.3-1.2c0.6,0,1.2-0.2,1.6-0.7
	c0.4-0.4,0.7-1,0.7-1.6l0,0v-1.7c0-12-3.7-21.6-11-28.6S77.5,24.1,65.3,24.1s-21.9,3.5-29.2,10.6S25.2,51.2,25.2,63.2l0,0v58.9
	c0,11.9,3.6,21.4,10.9,28.6S53.2,161.5,65.3,161.5z M160.4,161.5c12.3,0,22.2-3.6,29.7-10.8c7.5-7.2,11.2-16.8,11.2-29l0,0v-58
	c0-12-3.7-21.7-11.2-28.9c-7.5-7.2-17.4-10.8-29.7-10.8c-12.4,0-22.3,3.6-29.7,10.8c-7.4,7.2-11,16.9-11,28.9l0,0v58
	c0,12.2,3.7,21.8,11,29C138.1,158,148,161.5,160.4,161.5z M156.1,134.3c-2.8,0-5-1-6.5-3c-1.5-2-2.3-4.7-2.3-8.2l0,0V62.5
	c0-3.5,0.8-6.2,2.3-8.2c1.5-2,3.7-3,6.5-3c2.8,0,5,1,6.6,3c1.6,2,2.4,4.7,2.4,8.2l0,0v60.7c0,3.5-0.8,6.2-2.4,8.2
	C161.2,133.3,158.9,134.3,156.1,134.3z M243.5,160c1.3,0,2.1-0.6,2.5-1.9l0,0l44.7-129.8c0.3-0.9,0.2-1.6-0.2-2s-1-0.7-1.7-0.7l0,0
	h-27.1c-1.3,0-2.1,0.6-2.5,1.9l0,0l-44.7,129.8c-0.3,0.9-0.2,1.6,0.2,2s1,0.7,1.7,0.7l0,0H243.5z M66.1,314.3
	c7.9,0,14.9-1.7,20.9-5.1c6-3.4,10.7-8.2,14-14.3c3.3-6.1,5-13.2,5-21.3l0,0v-92.9c0-0.6-0.2-1.2-0.7-1.6c-0.4-0.4-1-0.7-1.6-0.7
	l0,0H76.4c-0.6,0-1.2,0.2-1.6,0.7c-0.4,0.4-0.7,1-0.7,1.6l0,0v96c0,3.1-0.7,5.6-2.2,7.5c-1.5,1.9-3.4,2.9-5.9,2.9
	c-2.4,0-4.4-1-5.9-2.9c-1.5-1.9-2.2-4.4-2.2-7.5l0,0v-96c0-0.6-0.2-1.2-0.7-1.6c-0.4-0.4-1-0.7-1.6-0.7l0,0H28.4
	c-0.6,0-1.2,0.2-1.6,0.7c-0.4,0.4-0.7,1-0.7,1.6l0,0v92.9c0,8.1,1.7,15.2,5,21.3s8,10.9,14,14.3C51.2,312.6,58.1,314.3,66.1,314.3z
	 M151.8,312.8c0.6,0,1.2-0.2,1.6-0.7s0.7-1,0.7-1.6l0,0v-48.8c0-0.6,0.3-1,1-1l0,0h12.5c7.2,0,13.5-1.7,19-5
	c5.5-3.3,9.8-8,12.8-14.1c3-6.1,4.5-13.2,4.5-21.2c0-8.2-1.6-15.5-4.8-21.9c-3.2-6.4-7.6-11.4-13.3-14.9c-5.7-3.5-12.3-5.3-19.7-5.3
	l0,0h-41.5c-0.6,0-1.2,0.2-1.6,0.7c-0.4,0.4-0.7,1-0.7,1.6l0,0v129.8c0,0.6,0.2,1.2,0.7,1.6c0.4,0.4,1,0.7,1.6,0.7l0,0H151.8z
	 M156.1,236.2h-5.4c-0.6,0-1-0.3-1-1l0,0v-28.6c0-0.6,0.3-1,1-1l0,0h5.4c3.5,0,6.2,1.3,8.4,4s3.2,6.5,3.2,11.5c0,4.7-1.1,8.4-3.2,11
	C162.4,234.9,159.6,236.2,156.1,236.2L156.1,236.2z"/>
</svg>
