<?xml version="1.0" encoding="utf-8"?>
<!-- Generator: Adobe Illustrator 24.0.1, SVG Export Plug-In . SVG Version: 6.00 Build 0)  -->
<svg version="1.1" id="Layer_1" xmlns="http://www.w3.org/2000/svg" xmlns:xlink="http://www.w3.org/1999/xlink" x="0px" y="0px"
	 viewBox="0 0 96 96" style="enable-background:new 0 0 96 96;" xml:space="preserve">
<style type="text/css">
	.st0{fill:#614AC4;}
	.st1{fill:#FFFFFF;}
</style>
<g>
	<path class="st0" d="M88.4,96H7.9c-4.2,0-7.6-3.4-7.6-7.6V7.9c0-4.2,3.4-7.6,7.6-7.6h80.5c4.2,0,7.6,3.4,7.6,7.6v80.5
		C96,92.6,92.6,96,88.4,96z"/>
	<g>
		<polygon class="st1" points="33.2,23.1 26.9,16.8 20.6,23.1 20.6,40.1 33.2,40.1 		"/>
		<path class="st1" d="M69.6,16.8l-6.3,6.3V42l0,0h-30l0,0h0c-7,0-12.6,5.6-12.6,12.6l0,0v25.2h12.6V54.6h30l0,0
			c7,0,12.6-5.6,12.6-12.6l0,0V23.1L69.6,16.8z"/>
		<polygon class="st1" points="63.3,61.5 63.3,79.8 75.9,79.8 75.9,61.5 69.6,55.2 		"/>
	</g>
</g>
</svg>
