<?xml version="1.0" encoding="utf-8"?>
<!-- Generator: Adobe Illustrator 24.0.1, SVG Export Plug-In . SVG Version: 6.00 Build 0)  -->
<svg version="1.1" xmlns="http://www.w3.org/2000/svg" xmlns:xlink="http://www.w3.org/1999/xlink" x="0px" y="0px"
	 viewBox="0 0 96 96" style="enable-background:new 0 0 96 96;" xml:space="preserve">
<style type="text/css">
	.st0{display:none;}
	.st1{display:inline;}
	.st2{display:inline;fill:#FFFFFF;stroke:#000000;stroke-width:8;stroke-linecap:round;stroke-miterlimit:10;}
	.st3{display:inline;fill:none;stroke:#FFFFFF;stroke-width:8;stroke-linecap:round;stroke-linejoin:round;stroke-miterlimit:10;}
	.st4{fill:#FFFFFF;stroke:#000000;stroke-width:8;stroke-linecap:round;stroke-miterlimit:10;}
</style>
<g id="Layer_1" class="st0">
	<g class="st1">
		<path d="M35.4,8c7.3,0,14.2,2.9,19.4,8c10.7,10.7,10.7,28.1,0,38.8c-5.2,5.2-12.1,8-19.4,8c-7.3,0-14.2-2.9-19.4-8
			C5.3,44.1,5.3,26.7,16,16C21.2,10.9,28.1,8,35.4,8 M35.4,0c-9.1,0-18.1,3.5-25,10.4c-13.8,13.8-13.8,36.2,0,50.1
			c6.9,6.9,16,10.4,25,10.4s18.1-3.5,25-10.4c13.8-13.8,13.8-36.2,0-50.1C53.5,3.5,44.5,0,35.4,0L35.4,0z"/>
	</g>
	<line class="st2" x1="60.9" y1="59.9" x2="89" y2="88"/>
</g>
<g id="Layer_2" class="st0">
	<polyline class="st3" points="52.8,9.4 24.7,60.3 21.2,90.1 44.6,71.3 72.7,20.4 	"/>
</g>
<g id="Layer_3">
	<line class="st4" x1="48" y1="16" x2="48" y2="87"/>
	<line class="st4" x1="12.5" y1="51.5" x2="83.5" y2="51.5"/>
</g>
</svg>
