<?xml version="1.0" encoding="UTF-8"?>
<svg width="496px" height="192px" viewBox="0 0 496 192" version="1.1" xmlns="http://www.w3.org/2000/svg" xmlns:xlink="http://www.w3.org/1999/xlink">
    <!-- Generator: Sketch 62 (91390) - https://sketch.com -->
    <title>icon-line</title>
    <desc>Created with Sketch.</desc>
    <g id="icon-line" stroke="none" stroke-width="1" fill="none" fill-rule="evenodd">
        <g id="Group-5">
            <rect id="Rectangle-Copy-7" fill="#27B678" x="0" y="0" width="496" height="192" rx="60"></rect>
            <path d="M65.312,161.536 C77.472,161.536 87.232,157.952 94.592,150.784 C101.952,143.616 105.632,134.08 105.632,122.176 L105.632,122.176 L105.632,120.064 C105.632,119.552 105.408,119.104 104.96,118.72 C104.512,118.336 103.968,118.144 103.328,118.144 L103.328,118.144 L76.064,116.992 C75.424,116.992 74.88,117.216 74.432,117.664 C73.984,118.112 73.76,118.656 73.76,119.296 L73.76,119.296 L73.76,124.864 C73.76,127.68 72.992,129.952 71.456,131.68 C69.92,133.408 67.872,134.272 65.312,134.272 C62.88,134.272 60.896,133.408 59.36,131.68 C57.824,129.952 57.056,127.68 57.056,124.864 L57.056,124.864 L57.056,60.928 C57.056,57.984 57.824,55.648 59.36,53.92 C60.896,52.192 62.88,51.328 65.312,51.328 C67.872,51.328 69.92,52.192 71.456,53.92 C72.992,55.648 73.76,57.984 73.76,60.928 L73.76,60.928 L73.76,66.112 C73.76,67.648 74.528,68.416 76.064,68.416 L76.064,68.416 L103.328,67.264 C103.968,67.264 104.512,67.04 104.96,66.592 C105.408,66.144 105.632,65.6 105.632,64.96 L105.632,64.96 L105.632,63.232 C105.632,51.2 101.952,41.664 94.592,34.624 C87.232,27.584 77.472,24.064 65.312,24.064 C53.152,24.064 43.424,27.584 36.128,34.624 C28.832,41.664 25.184,51.2 25.184,63.232 L25.184,63.232 L25.184,122.176 C25.184,134.08 28.832,143.616 36.128,150.784 C43.424,157.952 53.152,161.536 65.312,161.536 Z M156.128,161.536 C168.416,161.536 178.304,157.952 185.792,150.784 C193.28,143.616 197.024,133.952 197.024,121.792 L197.024,121.792 L197.024,63.808 C197.024,51.776 193.28,42.144 185.792,34.912 C178.304,27.68 168.416,24.064 156.128,24.064 C143.712,24.064 133.824,27.68 126.464,34.912 C119.104,42.144 115.424,51.776 115.424,63.808 L115.424,63.808 L115.424,121.792 C115.424,133.952 119.104,143.616 126.464,150.784 C133.824,157.952 143.712,161.536 156.128,161.536 Z M156.128,134.272 C153.312,134.272 151.136,133.28 149.6,131.296 C148.064,129.312 147.296,126.592 147.296,123.136 L147.296,123.136 L147.296,62.464 C147.296,59.008 148.064,56.288 149.6,54.304 C151.136,52.32 153.312,51.328 156.128,51.328 C158.944,51.328 161.152,52.32 162.752,54.304 C164.352,56.288 165.152,59.008 165.152,62.464 L165.152,62.464 L165.152,123.136 C165.152,126.592 164.352,129.312 162.752,131.296 C161.152,133.28 158.944,134.272 156.128,134.272 Z M234.272,160 C235.552,160 236.384,159.36 236.768,158.08 L236.768,158.08 L281.504,28.288 C281.76,27.392 281.696,26.72 281.312,26.272 C280.928,25.824 280.352,25.6 279.584,25.6 L279.584,25.6 L252.512,25.6 C251.232,25.6 250.4,26.24 250.016,27.52 L250.016,27.52 L205.28,157.312 C205.024,158.208 205.088,158.88 205.472,159.328 C205.856,159.776 206.432,160 207.2,160 L207.2,160 L234.272,160 Z M330.464,161.536 C338.4,161.536 345.376,159.84 351.392,156.448 C357.408,153.056 362.08,148.288 365.408,142.144 C368.736,136 370.4,128.896 370.4,120.832 L370.4,120.832 L370.4,27.904 C370.4,27.264 370.176,26.72 369.728,26.272 C369.28,25.824 368.736,25.6 368.096,25.6 L368.096,25.6 L340.832,25.6 C340.192,25.6 339.648,25.824 339.2,26.272 C338.752,26.72 338.528,27.264 338.528,27.904 L338.528,27.904 L338.528,123.904 C338.528,126.976 337.792,129.472 336.32,131.392 C334.848,133.312 332.896,134.272 330.464,134.272 C328.032,134.272 326.08,133.312 324.608,131.392 C323.136,129.472 322.4,126.976 322.4,123.904 L322.4,123.904 L322.4,27.904 C322.4,27.264 322.176,26.72 321.728,26.272 C321.28,25.824 320.736,25.6 320.096,25.6 L320.096,25.6 L292.832,25.6 C292.192,25.6 291.648,25.824 291.2,26.272 C290.752,26.72 290.528,27.264 290.528,27.904 L290.528,27.904 L290.528,120.832 C290.528,128.896 292.192,136 295.52,142.144 C298.848,148.288 303.52,153.056 309.536,156.448 C315.552,159.84 322.528,161.536 330.464,161.536 Z M411.872,160 C412.512,160 413.056,159.776 413.504,159.328 C413.952,158.88 414.176,158.336 414.176,157.696 L414.176,157.696 L414.176,108.928 C414.176,108.288 414.496,107.968 415.136,107.968 L415.136,107.968 L427.616,107.968 C434.784,107.968 441.12,106.304 446.624,102.976 C452.128,99.648 456.384,94.944 459.392,88.864 C462.4,82.784 463.904,75.712 463.904,67.648 C463.904,59.456 462.304,52.16 459.104,45.76 C455.904,39.36 451.456,34.4 445.76,30.88 C440.064,27.36 433.504,25.6 426.08,25.6 L426.08,25.6 L384.608,25.6 C383.968,25.6 383.424,25.824 382.976,26.272 C382.528,26.72 382.304,27.264 382.304,27.904 L382.304,27.904 L382.304,157.696 C382.304,158.336 382.528,158.88 382.976,159.328 C383.424,159.776 383.968,160 384.608,160 L384.608,160 L411.872,160 Z M420.512,83.392 L415.136,83.392 C414.496,83.392 414.176,83.072 414.176,82.432 L414.176,82.432 L414.176,53.824 C414.176,53.184 414.496,52.864 415.136,52.864 L415.136,52.864 L420.512,52.864 C423.968,52.864 426.752,54.208 428.864,56.896 C430.976,59.584 432.032,63.424 432.032,68.416 C432.032,73.152 430.976,76.832 428.864,79.456 C426.752,82.08 423.968,83.392 420.512,83.392 L420.512,83.392 Z" id="CO/UP" fill="#FFFFFF" fill-rule="nonzero"></path>
        </g>
    </g>
</svg>